<?xml version="1.0" encoding="utf-8"?>
<!-- Generator: Adobe Illustrator 16.0.4, SVG Export Plug-In . SVG Version: 6.00 Build 0)  -->
<!DOCTYPE svg PUBLIC "-//W3C//DTD SVG 1.1//EN" "http://www.w3.org/Graphics/SVG/1.1/DTD/svg11.dtd">
<svg version="1.1" id="Layer_1" xmlns="http://www.w3.org/2000/svg" xmlns:xlink="http://www.w3.org/1999/xlink" x="0px" y="0px"
	 width="426.991px" height="195.872px" viewBox="0 0 426.991 195.872" enable-background="new 0 0 426.991 195.872"
	 xml:space="preserve">
<path d="M369.105,63.141c0,0-0.3-0.559-0.882-1.643c-0.585-1.083-1.482-2.678-2.747-4.711c-2.575-4.009-6.555-9.988-13.553-15.985
	c-3.504-2.958-7.785-5.875-12.896-8.164c-5.101-2.289-11.003-3.947-17.365-4.604c-6.361-0.691-13.146-0.438-20.079,0.598
	c-6.938,1.052-14.033,2.873-21.204,5.253c-14.355,4.77-29.006,11.739-44.002,19.656c-15.008,7.884-30.358,16.932-46.426,25.142
	c-8.014,4.021-16.319,7.946-24.561,10.192c-4.065,1.081-8.191,1.649-11.32,1.083c-1.546-0.247-2.85-0.834-3.76-1.502l-0.208-0.154
	c0-0.054,0-0.134,0.01-0.279c0.041-0.795,0.59-2.532,1.468-4.239c0.866-1.739,2.011-3.576,3.257-5.4
	c2.513-3.66,5.462-7.309,8.523-10.924c6.162-7.233,12.826-14.358,19.336-21.847c3.25-3.762,6.461-7.616,9.573-11.745
	c1.552-2.074,3.077-4.214,4.531-6.55c1.444-2.358,2.863-4.824,3.98-8.058c0.538-1.623,1.032-3.493,1.054-5.89
	c0.002-1.193-0.143-2.542-0.574-3.944c-0.424-1.396-1.162-2.816-2.103-3.987c-1.872-2.363-4.316-3.601-6.1-4.281
	c-1.95-0.736-4.006-1.107-5.914-1.152c-3.857-0.096-7.094,0.829-9.925,1.907c-2.835,1.107-5.312,2.458-7.633,3.887
	c-4.62,2.874-8.622,6.08-12.42,9.365c-3.785,3.294-7.336,6.689-10.758,10.121c-6.835,6.867-13.181,13.865-19.323,20.763
	c-6.071,6.861-12.041,13.606-17.884,20.209c-2.917,3.244-5.815,6.407-8.709,9.398c-1.427,1.47-2.865,2.914-4.291,4.27
	c0.97-1.899,2.029-3.81,3.123-5.69c1.839-3.151,3.778-6.254,5.721-9.304c3.892-6.12,7.811-11.955,11.417-17.998
	c0.901-1.521,1.783-3.062,2.637-4.699c0.852-1.66,1.687-3.322,2.452-5.578c0.358-1.192,0.791-2.39,0.87-4.682
	c-0.011-1.164-0.044-2.726-1.061-4.833c-0.49-1.012-1.317-2.111-2.274-2.928c-0.247-0.21-0.471-0.391-0.761-0.595
	c-0.336-0.233-0.691-0.446-1.054-0.638l-0.434-0.215l-0.61-0.258c-3.315-1.237-6.262-1.112-8.562-0.776
	c-4.62,0.781-7.751,2.361-10.663,3.86c-2.866,1.54-5.346,3.159-7.648,4.764c-4.575,3.218-8.404,6.382-11.781,9.299
	c-6.723,5.849-11.602,10.721-14.924,14.078c-1.644,1.703-2.904,3.01-3.754,3.89c-0.861,0.922-1.306,1.399-1.306,1.399l-0.024,0.026
	c-3.057,3.303-2.856,8.459,0.447,11.517s8.46,2.857,11.517-0.446l0.097-0.105c0,0,0.388-0.418,1.141-1.232
	c0.792-0.83,1.969-2.059,3.503-3.663c3.113-3.176,7.749-7.84,13.923-13.26c3.086-2.695,6.571-5.585,10.429-8.322
	c0.728-0.513,1.473-1.017,2.225-1.51c-2.786,4.561-5.929,9.384-9.123,14.482c-1.978,3.153-3.99,6.419-5.975,9.878
	c-1.979,3.474-3.953,7.083-5.719,11.265c-0.871,2.116-1.713,4.344-2.298,7.141c-0.279,1.408-0.508,2.981-0.421,4.947
	c0.1,1.918,0.562,4.529,2.357,7.029c0.876,1.22,2.031,2.279,3.208,3.03l0.438,0.266c0.33,0.174-0.113-0.031,0.853,0.452l0.555,0.243
	c0.301,0.12,0.609,0.23,0.92,0.327c0.33,0.104,0.627,0.178,0.81,0.211c0.428,0.088,0.897,0.176,1.289,0.204
	c1.669,0.154,3.011-0.057,4.116-0.318c1.106-0.271,1.971-0.613,2.772-0.963c3.085-1.428,4.998-2.962,6.936-4.487
	c3.738-3.064,6.863-6.228,9.972-9.461c3.083-3.233,6.062-6.535,9.024-9.878c5.812-6.667,11.75-13.475,17.787-20.4
	c6.009-6.849,12.152-13.717,18.593-20.281c3.221-3.277,6.52-6.472,9.915-9.471c3.392-2.986,6.904-5.801,10.456-8.039
	c1.768-1.112,3.55-2.072,5.218-2.733c1.658-0.667,3.206-1,4.215-0.964c0.105,0,0.2,0.007,0.293,0.014
	c-0.009,0.025-0.014,0.046-0.023,0.072c-0.471,1.384-1.444,3.21-2.573,4.993c-1.136,1.803-2.454,3.643-3.842,5.474
	c-2.787,3.669-5.882,7.304-9.02,10.954c-6.279,7.324-12.835,14.642-19.124,22.413c-3.144,3.899-6.241,7.889-9.12,12.296
	c-1.434,2.216-2.821,4.521-4.053,7.14c-1.19,2.638-2.407,5.508-2.636,9.546c-0.083,2.001,0.214,4.444,1.363,6.756
	c0.562,1.144,1.317,2.202,2.149,3.082c0.416,0.437,0.852,0.849,1.292,1.202l0.333,0.27l0.386,0.281l0.368,0.258
	c3.011,2.102,6.316,3.223,9.485,3.678c6.365,0.869,11.82-0.341,16.813-1.733c9.935-2.993,18.461-7.39,26.731-11.759
	c16.408-8.888,31.417-18.235,46.007-26.341c14.543-8.13,28.564-15.183,41.986-19.994c13.382-4.816,26.232-7.296,37.289-6.401
	c5.522,0.41,10.538,1.679,14.904,3.485c4.373,1.807,8.079,4.172,11.185,6.642c6.202,5,9.986,10.288,12.438,13.885
	c1.211,1.827,2.083,3.275,2.653,4.262c0.568,0.988,0.861,1.498,0.861,1.498l0.053,0.091c0.948,1.645,3.039,2.249,4.724,1.343
	C369.383,66.995,370.029,64.856,369.105,63.141z M150.001,88.227l-0.031-0.023l-0.012-0.018c-0.028-0.021-0.021-0.031-0.019-0.028
	C149.948,88.161,149.974,88.19,150.001,88.227z M149.863,88.125C149.821,88.093,149.795,88.074,149.863,88.125L149.863,88.125z"/>
<g>
	<g>
		<g>
			<g>
				<path d="M262.019,165.709c0-4.723-1.828-8.998-4.787-12.129v-0.037c-3.129-3.322-7.394-5.195-11.958-5.195l0,0l0,0
					c-4.571,0-8.826,1.873-11.964,5.195v-17.02c0-1.304-1.09-2.359-2.426-2.359c-1.283,0-2.362,1.081-2.362,2.359v29.186
					c0,4.661,1.813,8.885,4.745,11.985l0.043,0.111c3.114,3.276,7.374,5.127,11.964,5.127l0,0l0,0c4.586,0,8.842-1.851,11.958-5.127
					v-0.064C260.191,174.637,262.019,170.391,262.019,165.709z M245.274,178.14c-6.188,0-11.289-4.903-11.903-11.162
					c-0.037-0.42-0.061-0.843-0.061-1.269c0-0.413,0.023-0.815,0.057-1.219c0.004-0.032,0.007-0.066,0.011-0.101
					c0.584-5.886,5.044-10.571,10.648-11.183c0.006,0,0.016,0,0.027-0.007c0.398-0.04,0.807-0.062,1.221-0.062
					c0.41,0,0.818,0.021,1.217,0.062c0.012,0.007,0.019,0.007,0.027,0.007c5.597,0.611,10.062,5.297,10.646,11.183
					c0,0.034,0.01,0.068,0.01,0.101c0.037,0.403,0.059,0.806,0.059,1.219c0,0.426-0.021,0.849-0.059,1.269
					C256.562,173.237,251.457,178.14,245.274,178.14z"/>
				<path d="M382.07,177.742v0.064c3.11,3.276,7.366,5.127,11.955,5.127l0,0l0,0c4.59,0,8.846-1.851,11.962-5.127l0.046-0.111
					c2.928-3.101,4.737-7.324,4.737-11.985v-29.186c0-1.278-1.071-2.359-2.353-2.359c-1.344,0-2.431,1.056-2.431,2.359v17.02
					c-3.135-3.322-7.394-5.195-11.962-5.195l0,0l0,0c-4.564,0-8.829,1.873-11.955,5.195v0.037
					c-2.968,3.131-4.796,7.406-4.796,12.129C377.274,170.391,379.102,174.637,382.07,177.742z M382.125,166.978
					c-0.04-0.42-0.056-0.843-0.056-1.269c0-0.413,0.019-0.815,0.056-1.219c0-0.032,0.007-0.066,0.007-0.101
					c0.59-5.886,5.056-10.571,10.648-11.183c0.009,0,0.019,0,0.027-0.007c0.398-0.04,0.807-0.062,1.217-0.062
					c0.411,0,0.818,0.021,1.22,0.062c0.007,0.007,0.019,0.007,0.031,0.007c5.597,0.611,10.053,5.297,10.643,11.183
					c0,0.034,0.006,0.068,0.006,0.101c0.041,0.403,0.062,0.806,0.062,1.219c0,0.426-0.021,0.849-0.062,1.269
					c-0.617,6.259-5.716,11.162-11.899,11.162C387.836,178.14,382.744,173.237,382.125,166.978z"/>
				<g>
					<path d="M284.481,182.933c-9.056,0-16.425-7.758-16.425-17.295c0-9.531,7.369-17.29,16.425-17.29
						c9.046,0,16.411,7.759,16.411,17.29C300.892,175.175,293.527,182.933,284.481,182.933z M284.481,153.006
						c-6.341,0-11.696,5.785-11.696,12.632c0,6.935,5.244,12.572,11.696,12.572c6.438,0,11.686-5.638,11.686-12.572
						C296.167,158.792,290.809,153.006,284.481,153.006z"/>
				</g>
				<path d="M335.041,153.529l-0.01-0.013c-0.009-0.017-0.024-0.027-0.04-0.04c-0.349-0.369-0.717-0.718-1.09-1.054
					c-0.024-0.024-0.05-0.047-0.068-0.067c-2.844-2.497-6.507-4.007-10.491-4.007c-3.983,0-7.644,1.51-10.484,4.007
					c-0.031,0.021-0.047,0.043-0.074,0.067c-0.377,0.336-0.738,0.685-1.094,1.054c-0.013,0.013-0.024,0.023-0.037,0.04v0.006
					c-2.915,3.126-4.722,7.404-4.722,12.116c0,9.537,7.365,17.295,16.411,17.295c4.574,0,8.713-1.983,11.689-5.172v2.81
					c0,1.284,1.087,2.362,2.363,2.362c1.278,0,2.362-1.078,2.362-2.362v-14.933C339.756,160.926,337.956,156.651,335.041,153.529z
					 M311.652,165.638c0-6.968,5.244-12.632,11.689-12.632s11.689,5.664,11.689,12.632c0,6.935-5.244,12.572-11.689,12.572
					S311.652,172.573,311.652,165.638z"/>
				<path d="M373.197,150.663c-2.437-1.477-5.188-2.267-8.122-2.301c-0.04,0-0.077-0.014-0.12-0.014
					c-0.133,0-0.269,0.011-0.401,0.014c-0.103,0-0.204,0-0.306,0.006c-0.362,0.021-0.717,0.04-1.06,0.077
					c-0.068,0.007-0.133,0.007-0.194,0.018c-0.17,0.02-0.328,0.051-0.494,0.077c-0.062,0.006-0.124,0.017-0.18,0.022
					c-3.73,0.584-7.008,2.409-9.466,5.028v-2.813c0-1.302-1.025-2.359-2.292-2.359c-1.39,0-2.43,1.018-2.43,2.359v29.794
					c0,1.35,1.04,2.362,2.43,2.362c1.267,0,2.292-1.06,2.292-2.362v-18.225l0.021-0.01c1.344-5.105,5.81-8.712,10.899-9.203
					c0.12-0.01,0.24-0.016,0.361-0.026c0.229-0.014,0.457-0.026,0.676-0.026c2.184-0.027,4.179,0.522,6.017,1.665
					c1.801,0.676,2.767-0.754,2.767-0.754S374.893,152.549,373.197,150.663z"/>
				<path d="M262.019,165.709c0-4.717-1.828-8.998-4.787-12.125v-0.041c-3.129-3.322-7.399-5.192-11.962-5.192l0,0l0,0
					c-4.567,0-8.822,1.87-11.96,5.192v-17.017c0-1.303-1.09-2.362-2.434-2.362c-1.275,0-2.354,1.081-2.354,2.362v29.183
					c0,4.661,1.813,8.885,4.745,11.985l0.043,0.111c3.114,3.276,7.371,5.127,11.96,5.127l0,0l0,0c4.59,0,8.846-1.851,11.962-5.127
					v-0.064C260.191,174.637,262.019,170.391,262.019,165.709z M245.27,178.14c-6.184,0-11.285-4.898-11.903-11.162
					c-0.033-0.413-0.057-0.843-0.057-1.269c0-0.409,0.023-0.815,0.057-1.219c0-0.032,0.007-0.066,0.011-0.101
					c0.584-5.886,5.044-10.568,10.646-11.18c0.009-0.003,0.019-0.003,0.03-0.006c0.398-0.044,0.801-0.065,1.217-0.065
					c0.414,0,0.822,0.021,1.221,0.065c0.006,0.003,0.019,0.003,0.027,0.006c5.593,0.611,10.062,5.294,10.646,11.18
					c0,0.034,0.007,0.068,0.01,0.101c0.037,0.403,0.059,0.81,0.059,1.219c0,0.426-0.021,0.855-0.062,1.269
					C256.558,173.242,251.457,178.14,245.27,178.14z"/>
				<path d="M382.064,177.742v0.064c3.106,3.276,7.372,5.127,11.955,5.127l0,0l0,0c4.593,0,8.845-1.851,11.961-5.127l0.047-0.111
					c2.925-3.101,4.743-7.324,4.743-11.985v-29.183c0-1.281-1.077-2.362-2.353-2.362c-1.344,0-2.438,1.06-2.438,2.362v17.017
					c-3.135-3.322-7.394-5.192-11.961-5.192l0,0l0,0c-4.567,0-8.826,1.87-11.955,5.192v0.041c-2.962,3.127-4.796,7.408-4.796,12.125
					C377.268,170.391,379.102,174.637,382.064,177.742z M382.12,166.978c-0.037-0.413-0.056-0.843-0.056-1.269
					c0-0.409,0.021-0.815,0.056-1.219c0-0.032,0.006-0.066,0.006-0.101c0.59-5.886,5.053-10.568,10.652-11.18
					c0.006-0.003,0.012-0.003,0.024-0.006c0.398-0.044,0.803-0.065,1.217-0.065s0.818,0.021,1.22,0.065
					c0.01,0.003,0.016,0.003,0.028,0.006c5.599,0.611,10.062,5.294,10.646,11.18c0.006,0.034,0.006,0.068,0.006,0.101
					c0.04,0.403,0.062,0.81,0.062,1.219c0,0.426-0.021,0.855-0.062,1.269c-0.611,6.264-5.717,11.162-11.899,11.162
					S382.737,173.242,382.12,166.978z"/>
				<g>
					<path d="M284.474,182.933c-9.049,0-16.418-7.758-16.418-17.295c0-9.531,7.369-17.287,16.418-17.287s16.415,7.756,16.415,17.287
						C300.889,175.175,293.523,182.933,284.474,182.933z M284.474,153.006c-6.34,0-11.692,5.785-11.692,12.632
						c0,6.935,5.247,12.572,11.692,12.572c6.442,0,11.692-5.638,11.692-12.572C296.167,158.792,290.809,153.006,284.474,153.006z"/>
				</g>
				<path d="M335.038,153.529l-0.007-0.01c-0.016-0.016-0.027-0.03-0.04-0.043c-0.349-0.366-0.717-0.718-1.097-1.054
					c-0.024-0.021-0.043-0.047-0.067-0.067c-2.851-2.497-6.501-4.004-10.485-4.004c-3.987,0-7.644,1.507-10.488,4.004
					c-0.027,0.021-0.043,0.046-0.073,0.067c-0.377,0.336-0.738,0.688-1.091,1.054c-0.013,0.013-0.024,0.027-0.037,0.043v0.007
					c-2.922,3.122-4.725,7.4-4.725,12.112c0,9.537,7.362,17.295,16.414,17.295c4.568,0,8.709-1.983,11.689-5.172v2.812
					c0,1.281,1.081,2.359,2.363,2.359c1.278,0,2.362-1.078,2.362-2.359v-14.936C339.756,160.926,337.95,156.651,335.038,153.529z
					 M311.652,165.638c0-6.968,5.241-12.632,11.689-12.632c6.445,0,11.689,5.664,11.689,12.632c0,6.935-5.244,12.572-11.689,12.572
					C316.893,178.21,311.652,172.573,311.652,165.638z"/>
				<path d="M373.191,150.663c-2.431-1.47-5.188-2.267-8.119-2.295c-0.043-0.006-0.077-0.017-0.124-0.017
					c-0.136,0-0.266,0.011-0.398,0.011c-0.099,0-0.206,0.003-0.309,0.009c-0.358,0.018-0.71,0.037-1.06,0.077
					c-0.062,0.007-0.126,0.007-0.194,0.015c-0.163,0.02-0.327,0.054-0.487,0.077c-0.068,0.011-0.124,0.02-0.183,0.026
					c-3.737,0.58-7.005,2.405-9.463,5.024v-2.811c0-1.305-1.028-2.362-2.295-2.362c-1.387,0-2.427,1.018-2.427,2.362v29.794
					c0,1.347,1.04,2.359,2.427,2.359c1.267,0,2.295-1.06,2.295-2.359v-18.225l0.019-0.013c1.344-5.105,5.81-8.709,10.893-9.203
					c0.12-0.006,0.244-0.016,0.371-0.026c0.222-0.014,0.441-0.026,0.67-0.026c2.184-0.027,4.185,0.522,6.016,1.665
					c1.804,0.676,2.773-0.754,2.773-0.754S374.889,152.555,373.191,150.663z"/>
			</g>
			<g>
				<path d="M33.501,165.709c0-4.723-1.833-8.998-4.789-12.129v-0.037c-3.139-3.322-7.395-5.195-11.966-5.195l0,0l0,0
					c-4.565,0-8.824,1.873-11.961,5.195v-17.02c0-1.304-1.087-2.359-2.426-2.359c-1.279,0-2.36,1.081-2.36,2.359v29.186
					c0,4.661,1.812,8.885,4.749,11.985l0.037,0.111c3.115,3.276,7.374,5.127,11.961,5.127l0,0l0,0c4.592,0,8.854-1.851,11.966-5.127
					v-0.064C31.668,174.637,33.501,170.391,33.501,165.709z M16.747,178.14c-6.182,0-11.284-4.903-11.901-11.162
					c-0.037-0.42-0.06-0.843-0.06-1.269c0-0.413,0.023-0.815,0.06-1.219c0-0.032,0.008-0.066,0.014-0.101
					c0.583-5.886,5.048-10.571,10.646-11.183c0.003,0,0.017,0,0.026-0.007c0.403-0.04,0.806-0.062,1.215-0.062
					c0.417,0,0.82,0.021,1.221,0.062c0.011,0.007,0.02,0.007,0.028,0.007c5.598,0.611,10.059,5.297,10.649,11.183
					c0,0.034,0,0.068,0.014,0.101c0.034,0.403,0.054,0.806,0.054,1.219c0,0.426-0.02,0.849-0.068,1.269
					C28.035,173.237,22.936,178.14,16.747,178.14z"/>
				<g>
					<path d="M55.951,182.933c-9.044,0-16.412-7.758-16.412-17.295c0-9.531,7.367-17.29,16.412-17.29
						c9.049,0,16.413,7.759,16.413,17.29C72.364,175.175,65,182.933,55.951,182.933z M55.951,153.006
						c-6.336,0-11.692,5.785-11.692,12.632c0,6.935,5.249,12.572,11.692,12.572c6.452,0,11.689-5.638,11.689-12.572
						C67.64,158.792,62.291,153.006,55.951,153.006z"/>
				</g>
				<g>
					<path d="M94.823,182.933c-9.055,0-16.418-7.758-16.418-17.295c0-9.531,7.363-17.29,16.418-17.29
						c9.046,0,16.412,7.759,16.412,17.29C111.234,175.175,103.869,182.933,94.823,182.933z M94.823,153.006
						c-6.344,0-11.696,5.785-11.696,12.632c0,6.935,5.243,12.572,11.696,12.572c6.44,0,11.687-5.638,11.687-12.572
						C106.509,158.792,101.152,153.006,94.823,153.006z"/>
				</g>
				<g>
					<path d="M187.29,182.933c-9.273,0-16.814-7.729-16.814-17.224c0-9.571,7.542-17.361,16.814-17.361
						c8.79,0,15.965,6.916,16.683,16.089v0.327c0,1.248-1.033,2.224-2.362,2.224h-26.356c0.668,6.35,5.817,11.223,12.035,11.223
						c4.098,0,7.951-2.168,10.042-5.651c0.613-1.06,2.125-1.43,3.174-0.799c1.135,0.826,1.447,2.198,0.802,3.304
						C198.214,179.996,192.979,182.933,187.29,182.933z M175.587,162.336h23.224c-1.333-5.417-6.047-9.264-11.521-9.264
						C181.729,153.073,177.031,156.839,175.587,162.336z"/>
				</g>
				<path d="M146.428,189.545c2.168-2.762,3.464-6.221,3.464-9.988v-14.052c0-9.458-7.299-17.157-16.277-17.157
					c-0.006,0-0.02,0.006-0.031,0.006c-0.009,0-0.023-0.006-0.036-0.006c-8.975,0-16.279,7.699-16.279,17.157
					c0,5.274,2.259,10,5.8,13.162c0.04,0.034,0.074,0.068,0.108,0.101c0.261,0.229,0.533,0.438,0.804,0.641
					c0.195,0.151,0.386,0.312,0.591,0.454c2.578,1.809,5.658,2.869,8.975,2.869c0.012,0,0.026-0.003,0.036-0.003
					c0.011,0,0.024,0.003,0.031,0.003c3.32,0,6.404-1.061,8.978-2.869c0.205-0.142,0.392-0.303,0.591-0.454
					c0.271-0.203,0.546-0.412,0.801-0.641c0.04-0.032,0.074-0.066,0.111-0.101c0.372-0.336,0.732-0.678,1.076-1.047v1.937
					c0,2.366-0.69,4.543-1.865,6.359c-0.081,0.114-0.161,0.223-0.235,0.333c-2.082,2.959-5.534,4.863-9.524,4.863
					c-1.87,0-3.435-0.35-5.028-1.113c-0.045-0.022-0.094-0.022-0.138-0.04c-0.346-0.177-0.683-0.36-1.018-0.565
					c-1.598-0.973-2.749-2.094-3.712-3.57c-0.624-1.172-2.178-1.511-3.255-0.794c-1.115,0.646-1.31,2.104-0.786,3.268
					c1.552,2.224,3.28,3.899,5.283,5.13c6.921,4.237,15.755,2.813,20.876-3.095c0.202-0.227,0.406-0.466,0.598-0.707
					C146.391,189.599,146.408,189.568,146.428,189.545z M133.583,153.078c6.391,0.016,11.589,5.587,11.589,12.428
					c0,6.919-5.198,12.548-11.589,12.568c-6.396-0.021-11.588-5.649-11.588-12.568C121.996,158.665,127.187,153.093,133.583,153.078
					z"/>
				<path d="M33.504,165.709c0-4.717-1.832-8.998-4.792-12.125v-0.041c-3.132-3.322-7.391-5.192-11.958-5.192l0,0l0,0
					c-4.565,0-8.828,1.87-11.963,5.192v-17.017c0-1.303-1.09-2.362-2.426-2.362c-1.281,0-2.359,1.081-2.359,2.362v29.183
					c0,4.661,1.813,8.885,4.742,11.985l0.043,0.111c3.114,3.276,7.374,5.127,11.963,5.127l0,0l0,0c4.591,0,8.846-1.851,11.958-5.127
					v-0.064C31.673,174.637,33.504,170.391,33.504,165.709z M16.755,178.14c-6.183,0-11.285-4.898-11.901-11.162
					c-0.042-0.413-0.062-0.843-0.062-1.269c0-0.409,0.024-0.815,0.062-1.219c0-0.032,0.006-0.066,0.006-0.101
					c0.59-5.886,5.048-10.568,10.648-11.18c0.011-0.003,0.017-0.003,0.028-0.006c0.398-0.044,0.805-0.065,1.219-0.065
					c0.412,0,0.818,0.021,1.218,0.065c0.009,0.003,0.015,0.003,0.023,0.006c5.604,0.611,10.065,5.294,10.649,11.18
					c0.006,0.034,0.014,0.068,0.014,0.101c0.034,0.403,0.054,0.81,0.054,1.219c0,0.426-0.02,0.855-0.054,1.269
					C28.041,173.242,22.936,178.14,16.755,178.14z"/>
				<g>
					<path d="M55.958,182.933c-9.052,0-16.416-7.758-16.416-17.295c0-9.531,7.364-17.287,16.416-17.287
						c9.047,0,16.412,7.756,16.412,17.287C72.37,175.175,65.006,182.933,55.958,182.933z M55.958,153.006
						c-6.337,0-11.694,5.785-11.694,12.632c0,6.935,5.246,12.572,11.694,12.572c6.444,0,11.689-5.638,11.689-12.572
						C67.648,158.792,62.294,153.006,55.958,153.006z"/>
				</g>
				<g>
					<path d="M94.823,182.933c-9.052,0-16.418-7.758-16.418-17.295c0-9.531,7.366-17.287,16.418-17.287
						c9.049,0,16.412,7.756,16.412,17.287C111.234,175.175,103.872,182.933,94.823,182.933z M94.823,153.006
						c-6.344,0-11.693,5.785-11.693,12.632c0,6.935,5.246,12.572,11.693,12.572c6.44,0,11.689-5.638,11.689-12.572
						C106.512,158.792,101.16,153.006,94.823,153.006z"/>
				</g>
				<g>
					<path d="M187.29,182.933c-9.273,0-16.814-7.729-16.814-17.224c0-9.571,7.542-17.358,16.814-17.358
						c8.79,0,15.965,6.916,16.683,16.086v0.327c0,1.248-1.033,2.224-2.362,2.224h-26.356c0.668,6.355,5.817,11.223,12.035,11.223
						c4.098,0,7.951-2.165,10.042-5.651c0.613-1.06,2.125-1.43,3.174-0.795c1.135,0.822,1.447,2.194,0.802,3.3
						C198.214,179.996,192.979,182.933,187.29,182.933z M175.587,162.336h23.224c-1.328-5.417-6.047-9.264-11.521-9.264
						C181.729,153.073,177.031,156.839,175.587,162.336z"/>
				</g>
				<path d="M146.436,189.545c2.16-2.762,3.463-6.221,3.463-9.988v-14.052c0-9.458-7.307-17.154-16.279-17.154
					c-0.012,0-0.026,0.003-0.037,0.003c-0.009,0-0.023-0.003-0.036-0.003c-8.975,0-16.279,7.696-16.279,17.154
					c0,5.274,2.262,10,5.8,13.162c0.04,0.034,0.074,0.068,0.108,0.104c0.261,0.226,0.533,0.435,0.807,0.638
					c0.199,0.151,0.389,0.312,0.588,0.454c2.578,1.809,5.661,2.869,8.975,2.869c0.012,0,0.026-0.003,0.036-0.003
					c0.011,0,0.024,0.003,0.037,0.003c3.314,0,6.398-1.061,8.975-2.869c0.202-0.142,0.389-0.303,0.588-0.454
					c0.271-0.203,0.546-0.412,0.804-0.638c0.037-0.035,0.071-0.069,0.111-0.104c0.372-0.336,0.729-0.678,1.073-1.047v1.937
					c0,2.372-0.69,4.543-1.865,6.359c-0.074,0.114-0.161,0.223-0.235,0.333c-2.082,2.959-5.534,4.863-9.524,4.863
					c-1.867,0-3.435-0.35-5.028-1.113c-0.045-0.022-0.088-0.022-0.138-0.04c-0.34-0.177-0.683-0.36-1.018-0.56
					c-1.598-0.979-2.746-2.1-3.712-3.576c-0.621-1.172-2.178-1.511-3.249-0.794c-1.113,0.646-1.312,2.104-0.792,3.268
					c1.555,2.224,3.283,3.899,5.288,5.13c6.916,4.237,15.75,2.813,20.871-3.095c0.202-0.227,0.406-0.466,0.601-0.707
					C146.391,189.599,146.408,189.568,146.436,189.545z M133.583,153.078c6.394,0.019,11.589,5.587,11.589,12.428
					c0,6.919-5.195,12.548-11.589,12.568c-6.393-0.021-11.588-5.649-11.588-12.568C121.996,158.665,127.19,153.096,133.583,153.078z
					"/>
				<g>
					<g>
						<path d="M160.631,182.93c-1.275,0-2.355-1.081-2.355-2.359v-29.86c0-1.319,1.033-2.356,2.355-2.356
							c1.39,0,2.431,1.015,2.431,2.356v29.86C163.062,181.871,161.975,182.93,160.631,182.93z"/>
					</g>
					<g>
						<path d="M160.639,182.93c-1.283,0-2.363-1.081-2.363-2.359v-29.857c0-1.318,1.033-2.359,2.363-2.359
							c1.382,0,2.423,1.015,2.423,2.359v29.857C163.062,181.871,161.975,182.93,160.639,182.93z"/>
					</g>
					<path d="M160.631,143.955c-1.275,0-2.355-1.081-2.355-2.359v-0.954c0-1.322,1.033-2.363,2.355-2.363
						c1.39,0,2.431,1.018,2.431,2.363v0.954C163.062,142.897,161.975,143.955,160.631,143.955z"/>
				</g>
			</g>
		</g>
		<path d="M417.821,138.742c0-0.81,0.207-1.569,0.608-2.282c0.405-0.708,0.961-1.269,1.674-1.678
			c0.717-0.41,1.477-0.617,2.295-0.617s1.578,0.204,2.289,0.614c0.71,0.404,1.269,0.956,1.686,1.668
			c0.408,0.718,0.618,1.477,0.618,2.295c0,0.806-0.204,1.55-0.6,2.259c-0.389,0.703-0.944,1.265-1.658,1.688
			c-0.704,0.42-1.482,0.632-2.335,0.632c-0.84,0-1.618-0.212-2.322-0.628c-0.714-0.419-1.264-0.979-1.658-1.681
			C418.022,140.302,417.821,139.547,417.821,138.742z M418.383,138.742c0,0.726,0.182,1.396,0.55,2.01
			c0.349,0.618,0.84,1.109,1.458,1.468c0.617,0.362,1.297,0.537,2.007,0.537c0.726,0,1.396-0.172,2.014-0.531
			c0.611-0.361,1.108-0.853,1.464-1.474c0.361-0.614,0.537-1.284,0.537-2.01c0-0.704-0.17-1.362-0.513-1.974
			c-0.354-0.618-0.837-1.113-1.454-1.482c-0.633-0.377-1.31-0.561-2.048-0.561c-0.71,0-1.377,0.184-1.995,0.54
			c-0.624,0.355-1.111,0.853-1.47,1.477C418.565,137.37,418.383,138.034,418.383,138.742z M424.035,137.608
			c0,0.315-0.08,0.596-0.234,0.847c-0.161,0.247-0.377,0.441-0.677,0.577l1.442,2.395h-0.738l-1.275-2.19h-1.028v2.19h-0.608v-5.362
			h1.288c0.584,0,1.034,0.123,1.35,0.38C423.868,136.691,424.035,137.084,424.035,137.608z M421.524,138.742h0.686
			c0.377,0,0.664-0.09,0.874-0.275c0.213-0.191,0.315-0.47,0.315-0.827c0-0.698-0.396-1.052-1.195-1.052h-0.68V138.742z"/>
	</g>
</g>
</svg>
