<?xml version="1.0" encoding="utf-8"?>
<!-- Generator: Adobe Illustrator 16.0.0, SVG Export Plug-In . SVG Version: 6.00 Build 0)  -->
<!DOCTYPE svg PUBLIC "-//W3C//DTD SVG 1.1//EN" "http://www.w3.org/Graphics/SVG/1.1/DTD/svg11.dtd">
<svg version="1.1" id="Layer_1" xmlns="http://www.w3.org/2000/svg" xmlns:xlink="http://www.w3.org/1999/xlink" x="0px" y="0px"
	 width="647.051px" height="242.275px" viewBox="0 0 647.051 242.275" enable-background="new 0 0 647.051 242.275"
	 xml:space="preserve">
<g>
	<path fill="#BEBEBE" d="M138.716,154.795c0,0,6.344-4.99,6.955-6.541c-3.64,3.238-7.927,5.764-12.66,7.327
		c-3.574,1.183-7.394,1.831-11.363,1.831c-19.98,0-36.176-16.195-36.176-36.172c0-3.833,0.602-7.524,1.705-10.993
		c2.029-6.367,5.781-11.957,10.697-16.25c0.664-1.576,6.944-6.519,6.944-6.519c8.171-4.786,17.653-7.548,27.757-7.548h29.771V42.439
		C162.347,12.068,150.28,0,119.906,0H42.441C12.067,0,0,12.068,0,42.439v77.465c0,30.377,12.067,42.442,42.441,42.442h38.746h29.771
		C121.061,162.347,130.544,159.585,138.716,154.795z"/>
	<path fill="#BC302D" d="M201.094,79.931h-38.747h-29.771c-10.104,0-19.586,2.762-27.757,7.548c0,0-6.28,4.942-6.944,6.519
		c3.159-2.758,6.796-4.983,10.779-6.519c4.035-1.554,8.412-2.413,12.994-2.413c19.975,0,36.171,16.196,36.171,36.175
		c0,4.725-0.913,9.23-2.56,13.367c-2.102,5.277-5.418,9.934-9.588,13.646c-0.611,1.551-6.955,6.541-6.955,6.541
		c-8.172,4.79-17.655,7.552-27.758,7.552H81.188v37.487c0,30.375,12.066,42.441,42.439,42.441h77.467
		c30.371,0,42.44-12.066,42.44-42.441v-77.465C243.534,91.997,231.465,79.931,201.094,79.931z"/>
</g>
<g>
	<path d="M272.13,103.991c0-7.12,0.21-10.677,5.232-14.443c6.908-5.027,21.144-8.375,33.285-8.375
		c21.354,0,28.259,8.584,31.398,12.558c4.607-4.815,11.932-12.558,33.286-12.558c34.12,0,33.911,22.608,33.911,33.703v73.265
		c0,2.934-0.838,3.77-3.768,3.978h-11.094c-2.723,0-3.771-0.417-3.771-3.978v-68.243c-0.21-11.095-0.417-27.002-20.303-27.002
		c-7.329,0-11.935,2.721-14.446,4.812c-5.861,5.233-5.861,10.677-5.861,17.168v73.265c0,2.934-0.416,3.978-3.557,3.978H335.56
		c-2.934,0-4.188-0.208-4.188-3.769v-70.335c0-7.535-0.21-25.747-20.096-25.747c-20.096,0-20.517,15.489-20.517,22.608v73.265
		c0,3.352-0.834,3.978-4.186,3.978H275.9c-2.725,0-3.771-0.626-3.771-3.978V103.991z"/>
	<path d="M452.364,188.35c0,3.561-1.046,3.769-4.188,3.769h-11.304c-3.14,0-3.14-0.839-3.14-3.769V87.66c0-2.72,0-3.976,3.56-3.976
		h10.884c3.351,0,4.188,0.628,4.188,3.976V188.35z"/>
	<path d="M477.063,103.991c0-7.12,0.211-10.677,5.23-14.443c6.91-5.027,21.145-8.375,33.287-8.375
		c21.351,0,28.26,8.584,31.398,12.558c4.604-4.815,11.931-12.558,33.283-12.558c34.126,0,33.912,22.608,33.912,33.703v73.265
		c0,2.934-0.836,3.77-3.767,3.978h-11.095c-2.721,0-3.77-0.417-3.77-3.978v-68.243c-0.209-11.095-0.418-27.002-20.303-27.002
		c-7.328,0-11.932,2.721-14.447,4.812c-5.857,5.233-5.857,10.677-5.857,17.168v73.265c0,2.934-0.42,3.978-3.562,3.978h-10.881
		c-2.932,0-4.187-0.208-4.187-3.769v-70.335c0-7.535-0.212-25.747-20.1-25.747c-20.095,0-20.516,15.489-20.516,22.608v73.265
		c0,3.352-0.832,3.978-4.186,3.978h-10.675c-2.721,0-3.768-0.626-3.768-3.978V103.991z"/>
</g>
<g>
	<path fill="#020202" d="M283.362,225.08c1.818,0.852,5.92,2.863,5.92,7.816c0,4.643-3.521,6.732-5.533,7.352
		c-1.083,0.349-2.128,0.426-3.289,0.426c-0.773,0-5.068-0.077-7.43-3.521c-0.503-0.734-0.928-1.586-0.928-2.321
		c0-1.045,0.734-1.896,1.818-1.896c0.967,0,1.509,0.695,1.74,1.083l0.388,0.735c0.735,1.354,1.857,3.482,4.837,3.482
		c2.631,0,4.799-1.664,4.799-4.488c0-3.6-3.251-4.992-5.65-6.076l-2.128-0.967c-1.741-0.812-5.417-2.787-5.417-7.236
		c0-4.876,3.83-7.275,7.894-7.275c5.302,0,7.778,3.213,7.778,4.645c0,0.889-0.619,1.818-1.664,1.818
		c-0.311,0-0.968-0.078-1.625-1.006c-1.006-1.394-1.819-3.174-4.489-3.174c-2.36,0-4.372,1.625-4.372,4.18
		c0,2.902,2.321,4.023,4.565,5.107L283.362,225.08z"/>
	<path fill="#020202" d="M334.169,238.777c-1.936,1.277-4.063,1.896-6.347,1.896c-7.933,0-12.46-6.85-12.46-14.201
		c0-4.373,1.393-8.707,4.799-11.609c2.205-1.934,4.721-2.67,7.661-2.67c4.837,0,8.358,2.594,10.37,6.347
		c1.123,2.089,1.857,5.03,1.857,7.235C340.05,230.807,338.58,235.876,334.169,238.777z M332.427,216.257
		c-1.393-1.161-2.979-1.819-4.798-1.819c-1.587,0-3.173,0.658-4.411,1.626c-3.057,2.477-3.793,6.462-3.793,10.177
		c0,3.947,0.852,7.972,4.18,10.448c1.199,0.929,2.748,1.394,4.256,1.394c1.819,0,3.483-0.852,4.799-2.013
		c2.67-2.321,3.406-6.269,3.406-9.636C336.065,222.758,335.407,218.771,332.427,216.257z"/>
	<path fill="#020202" d="M371.778,239.475c0,0.541-0.154,0.619-0.658,0.619h-2.359c-0.465,0-0.775,0-0.775-0.619v-25.85
		c0-0.734,0.232-0.852,0.697-0.852h13.582c0.271,0,0.504,0.039,0.504,0.504v1.199c0,0.619-0.039,0.773-0.581,0.773h-10.409v9.326
		h8.629c0.58,0,0.736,0,0.736,0.658v1.045c0,0.619-0.156,0.734-0.736,0.734h-8.629V239.475z"/>
	<path fill="#020202" d="M418.753,239.358c0,0.542-0.077,0.735-0.696,0.735h-2.244c-0.619,0-0.852-0.078-0.852-0.773v-24.07h-6.772
		c-0.619,0-0.734-0.154-0.734-0.734v-1.084c0-0.387,0.039-0.658,0.734-0.658h17.492c0.463,0,0.541,0.232,0.541,0.619v1.162
		c0,0.541-0.116,0.695-0.658,0.695h-6.811V239.358z"/>
	<path fill="#020202" d="M460.62,239.475c-0.193,0.58-0.232,0.619-0.773,0.619h-0.735c-0.425,0-0.696,0-0.89-0.619l-7.584-25.694
		c-0.039-0.155-0.078-0.349-0.078-0.503c0-0.465,0.465-0.504,0.735-0.504h2.438c0.619,0,0.695,0.311,0.812,0.775l5.301,19.695
		l6.424-19.58c0.193-0.541,0.232-0.891,0.619-0.891h0.658c0.464,0,0.541,0.194,0.695,0.697l6.656,19.773l5.457-19.734
		c0.193-0.697,0.348-0.736,0.812-0.736h1.857c0.27,0,0.58,0.039,0.58,0.388c0,0.077,0,0.271-0.078,0.503l-7.584,25.811
		c-0.154,0.541-0.271,0.619-0.619,0.619h-0.891c-0.502,0-0.619-0.039-0.812-0.58l-6.732-19.193L460.62,239.475z"/>
	<path fill="#020202" d="M511.464,229.336l-3.791,10.217c-0.155,0.425-0.232,0.541-0.697,0.541h-2.051
		c-0.348,0-0.503-0.116-0.503-0.31c0-0.077,0.077-0.388,0.193-0.657l10.022-25.811c0.193-0.543,0.426-0.543,0.658-0.543h1.471
		c0.58,0,0.657,0.078,0.812,0.504l10.061,25.85c0.078,0.193,0.154,0.387,0.154,0.58c0,0.387-0.271,0.387-0.426,0.387h-2.979
		c-0.465,0-0.581-0.039-0.774-0.58l-3.831-10.178H511.464z M515.644,217.844l-3.366,9.287h6.694L515.644,217.844z"/>
	<path fill="#020202" d="M571.905,239.01c0.231,0.349,0.309,0.465,0.309,0.658c0,0.348-0.309,0.426-0.541,0.426h-3.019
		c-0.542,0-0.619,0-1.007-0.619l-6.423-10.371c-0.232-0.387-1.007-1.432-2.052-1.432c-1.044,0-1.044,1.006-1.044,1.238v10.371
		c0,0.465,0,0.812-0.657,0.812h-2.438c-0.464,0-0.619-0.154-0.619-0.58v-25.27c0-1.199,0.31-1.238,2.244-1.471
		c0.503-0.076,2.864-0.27,4.372-0.27c8.011,0,9.83,3.753,9.83,7.274c0,4.565-3.947,6.733-6.772,7.468L571.905,239.01z
		 M558.129,225.97h1.857c5.263,0,7.004-2.786,7.004-5.688c0-5.418-4.489-5.611-6.114-5.611c-1.432,0-2.244,0.117-2.747,0.155V225.97
		z"/>
	<path fill="#020202" d="M603.169,224.576h8.861c0.387,0,0.697,0,0.697,0.542v1.2c0,0.619-0.155,0.695-0.697,0.695h-8.861v10.604
		h10.642c0.387,0,0.542,0.039,0.542,0.58v1.199c0,0.619-0.155,0.697-0.736,0.697h-13.465c-0.543,0-0.775,0-0.775-0.697v-25.732
		c0-0.58,0.078-0.891,0.775-0.891h13.465c0.426,0,0.736,0,0.736,0.581v1.161c0,0.658-0.193,0.734-0.619,0.734h-10.564V224.576z"/>
</g>
<g>
	<path fill="#231F20" d="M637.017,239.969c0,0.203-0.068,0.271-0.271,0.271h-0.905c-0.202,0-0.271-0.068-0.271-0.248v-6.307h-1.604
		c-0.158,0-0.248-0.09-0.248-0.226v-0.497c0-0.158,0.09-0.227,0.227-0.227h4.678c0.201,0,0.27,0.068,0.27,0.25v0.474
		c0,0.183-0.068,0.226-0.292,0.226h-1.583V239.969z M647.051,239.969c0,0.203-0.067,0.271-0.272,0.271h-0.835
		c-0.181,0-0.249-0.045-0.249-0.248v-5.086l-2.146,5.154c-0.068,0.18-0.137,0.225-0.271,0.225c-0.158,0-0.248-0.045-0.316-0.225
		l-2.125-5.154v5.086c0,0.203-0.09,0.271-0.293,0.271h-0.564c-0.204,0-0.272-0.067-0.272-0.271v-6.983
		c0-0.204,0.068-0.272,0.294-0.272h0.994c0.158,0,0.227,0.024,0.316,0.227l2.102,4.859l2.035-4.813
		c0.09-0.226,0.158-0.272,0.406-0.272h0.973c0.158,0,0.226,0.068,0.226,0.205V239.969z"/>
</g>
</svg>
