<?xml version="1.0" encoding="utf-8"?>
<!-- Generator: Adobe Illustrator 16.0.4, SVG Export Plug-In . SVG Version: 6.00 Build 0)  -->
<!DOCTYPE svg PUBLIC "-//W3C//DTD SVG 1.1//EN" "http://www.w3.org/Graphics/SVG/1.1/DTD/svg11.dtd">
<svg version="1.1" id="Layer_1" xmlns="http://www.w3.org/2000/svg" xmlns:xlink="http://www.w3.org/1999/xlink" x="0px" y="0px"
	 width="180px" height="252px" viewBox="0 0 180 252" enable-background="new 0 0 180 252" xml:space="preserve">
<g>
	<g>
		<path fill="#FFFFFF" d="M12,251.5c-6.341,0-11.5-5.159-11.5-11.5V12C0.5,5.659,5.659,0.5,12,0.5h156c6.341,0,11.5,5.159,11.5,11.5
			v228c0,6.341-5.159,11.5-11.5,11.5H12z"/>
		<path d="M168,1c6.065,0,11,4.935,11,11v228c0,6.065-4.935,11-11,11H12c-6.065,0-11-4.935-11-11V12C1,5.935,5.935,1,12,1H168
			 M168,0H12C5.373,0,0,5.373,0,12v228c0,6.627,5.373,12,12,12h156c6.627,0,12-5.373,12-12V12C180,5.373,174.627,0,168,0L168,0z"/>
	</g>
	<text transform="matrix(1 0 0 1 18 40.3867)" fill="#ED1C24" font-family="'DroidSerif'" font-size="34.9497">A</text>
	<g>
		<path fill="#ED1C24" d="M30.57,76.656c0,0-18.383-8.638-15.2-24.53c1.229-6.138,12.959-7.096,15.2-0.782V76.656z"/>
		<path fill="#ED1C24" d="M30.57,76.656c0,0,18.383-8.638,15.2-24.53c-1.229-6.138-12.959-7.096-15.2-0.782V76.656z"/>
	</g>
	<text transform="matrix(-1 0 0 -1 162 211.3418)" fill="#ED1C24" font-family="'DroidSerif'" font-size="34.9497">A</text>
	<g>
		<path fill="#ED1C24" d="M149.43,175.072c0,0,18.384,8.639,15.2,24.529c-1.229,6.139-12.959,7.096-15.2,0.783V175.072z"/>
		<path fill="#ED1C24" d="M149.43,175.072c0,0-18.383,8.639-15.2,24.529c1.229,6.139,12.959,7.096,15.2,0.783V175.072z"/>
	</g>
	<g>
		<path fill="#ED1C24" d="M90,150.557c0,0-30.488-14.327-25.209-40.683C66.83,99.693,86.284,98.105,90,108.577V150.557z"/>
		<path fill="#ED1C24" d="M90,150.557c0,0,30.487-14.327,25.208-40.683C113.17,99.693,93.717,98.105,90,108.577V150.557z"/>
	</g>
</g>
</svg>
