<?xml version="1.0" encoding="utf-8"?>
<!-- Generator: Adobe Illustrator 16.0.4, SVG Export Plug-In . SVG Version: 6.00 Build 0)  -->
<!DOCTYPE svg PUBLIC "-//W3C//DTD SVG 1.1//EN" "http://www.w3.org/Graphics/SVG/1.1/DTD/svg11.dtd">
<svg version="1.1" id="Layer_1" xmlns="http://www.w3.org/2000/svg" xmlns:xlink="http://www.w3.org/1999/xlink" x="0px" y="0px"
	 width="216.407px" height="275.155px" viewBox="-18.204 -11.578 216.407 275.155"
	 enable-background="new -18.204 -11.578 216.407 275.155" xml:space="preserve">
<g>
	<g>
		<path fill="#FFFFFF" d="M-8.151,236.456c-6.249-1.075-10.458-7.034-9.383-13.283L21.127-1.525
			c1.075-6.249,7.035-10.459,13.284-9.384l153.741,26.453c6.249,1.075,10.459,7.035,9.384,13.284l-38.662,224.698
			c-1.075,6.249-7.035,10.459-13.283,9.384L-8.151,236.456z"/>
		<path d="M188.066,16.037c5.977,1.028,10.004,6.729,8.976,12.706L158.38,253.44c-1.028,5.977-6.729,10.004-12.706,8.976
			L-8.067,235.963c-5.977-1.028-10.003-6.729-8.975-12.705L21.62-1.441c1.029-5.977,6.729-10.004,12.706-8.975L188.066,16.037
			 M188.236,15.051L34.496-11.402c-6.531-1.124-12.737,3.26-13.861,9.792l-38.662,224.698c-1.124,6.531,3.261,12.737,9.792,13.861
			l153.741,26.452c6.53,1.124,12.737-3.26,13.86-9.791l38.662-224.698C199.151,22.381,194.768,16.175,188.236,15.051L188.236,15.051
			z"/>
	</g>
	
		<text transform="matrix(0.9855 0.1696 -0.1696 0.9855 33.5605 29.417)" fill="#ED1C24" font-family="'DroidSerif'" font-size="34.9497">A</text>
	<g>
		<path fill="#ED1C24" d="M39.798,67.293c0,0-16.652-11.63-10.82-26.752c2.252-5.841,13.975-4.796,15.112,1.806L39.798,67.293z"/>
		<path fill="#ED1C24" d="M39.798,67.293c0,0,19.582-5.396,19.14-21.598c-0.17-6.258-11.568-9.191-14.848-3.349L39.798,67.293z"/>
	</g>
	
		<text transform="matrix(-0.9855 -0.1696 0.1696 -0.9855 146.4863 222.3154)" fill="#ED1C24" font-family="'DroidSerif'" font-size="34.9497">A</text>
	<g>
		<path fill="#ED1C24" d="M140.248,184.439c0,0,16.653,11.631,10.82,26.751c-2.253,5.842-13.975,4.796-15.112-1.807L140.248,184.439
			z"/>
		<path fill="#ED1C24" d="M140.248,184.439c0,0-19.582,5.396-19.139,21.597c0.17,6.258,11.568,9.19,14.847,3.348L140.248,184.439z"
			/>
	</g>
	<g>
		<path fill="#ED1C24" d="M85.836,150.201c0,0-27.617-19.289-17.945-44.368c3.736-9.688,23.178-7.954,25.063,2.997L85.836,150.201z"
			/>
		<path fill="#ED1C24" d="M85.836,150.201c0,0,32.474-8.949,31.741-35.819c-0.282-10.379-19.184-15.243-24.623-5.552L85.836,150.201
			z"/>
	</g>
</g>
</svg>
