<?xml version="1.0" encoding="utf-8"?>
<!-- Generator: Adobe Illustrator 16.0.4, SVG Export Plug-In . SVG Version: 6.00 Build 0)  -->
<!DOCTYPE svg PUBLIC "-//W3C//DTD SVG 1.1//EN" "http://www.w3.org/Graphics/SVG/1.1/DTD/svg11.dtd">
<svg version="1.1" id="Layer_2" xmlns="http://www.w3.org/2000/svg" xmlns:xlink="http://www.w3.org/1999/xlink" x="0px" y="0px"
	 width="612px" height="360px" viewBox="0 0 612 360" enable-background="new 0 0 612 360" xml:space="preserve">
<path d="M509.082,288.398H113.647V103.523h16.744v84.256h16.741v-84.256h16.744v151.812h-16.744V204.67h-16.741v67.098h378.69
	V288.398z"/>
<path d="M231.037,107.698v147.637h-16.744V204.67h-16.741v50.665h-16.744V107.698l4.142-4.175h41.76L231.037,107.698z
	 M214.293,120.412h-16.741v67.367h16.741V120.412z"/>
<path d="M281.264,187.966v-67.363h-16.74v118.034h16.74v-33.783h16.742v46.305l-4.326,4.366h-41.76l-4.141-4.366V107.891
	l4.141-4.176h41.76l4.326,4.176v80.075H281.264z"/>
<path d="M364.784,204.67v50.665H348.04V204.67h-16.738v50.665h-16.744V103.523h16.744v84.256h16.738v-84.256h16.744v84.256
	l-8.461,8.537L364.784,204.67z"/>
<path d="M415.201,170.892v-50.479h-16.739v67.367h29.157l4.326,4.363v59.016l-4.326,4.177h-41.76l-4.142-4.177v-29.601h16.744
	v16.888h16.739V204.67h-29.342l-4.142-4.177v-92.795l4.142-4.175h41.76l4.326,4.163v63.205H415.201z"/>
<path d="M102.1,71.073l396.004,0.205l0.812,179.88l-4.331,4.177H452.83l-4.141-4.177V103.523h16.744v134.922h16.738V87.335H102.1
	V71.073z"/>
<path d="M77.848,109.597c-16.43,0-29.797-13.365-29.797-29.796c0-16.43,13.367-29.796,29.797-29.796s29.796,13.366,29.796,29.796
	C107.644,96.231,94.277,109.597,77.848,109.597z M77.848,66.635c-7.26,0-13.166,5.906-13.166,13.166s5.906,13.166,13.166,13.166
	s13.166-5.906,13.166-13.166S85.107,66.635,77.848,66.635z"/>
<path d="M534.152,309.995c-16.43,0-29.796-13.365-29.796-29.796c0-16.43,13.366-29.796,29.796-29.796
	c16.431,0,29.797,13.366,29.797,29.796C563.949,296.63,550.583,309.995,534.152,309.995z M534.152,267.034
	c-7.26,0-13.165,5.906-13.165,13.165c0,7.26,5.905,13.166,13.165,13.166s13.166-5.906,13.166-13.166
	C547.318,272.94,541.412,267.034,534.152,267.034z"/>
</svg>
