<?xml version="1.0" encoding="utf-8"?>
<!-- Generator: Adobe Illustrator 16.0.0, SVG Export Plug-In . SVG Version: 6.00 Build 0)  -->
<!DOCTYPE svg PUBLIC "-//W3C//DTD SVG 1.1//EN" "http://www.w3.org/Graphics/SVG/1.1/DTD/svg11.dtd">
<svg version="1.1" id="Layer_1" xmlns="http://www.w3.org/2000/svg" xmlns:xlink="http://www.w3.org/1999/xlink" x="0px" y="0px"
	 width="850.877px" height="124.053px" viewBox="0 0 850.877 124.053" enable-background="new 0 0 850.877 124.053"
	 xml:space="preserve">
<g>
	<polygon fill="#EC1C24" points="543.551,0.198 482.749,60.995 543.551,121.793 604.344,60.995 	"/>
	<g>
		<polygon fill="#231F20" points="815.248,40.091 779.618,75.723 815.248,111.357 850.877,75.723 		"/>
		<polygon fill="#231F20" points="776.139,0.977 740.511,36.609 776.139,72.243 811.771,36.609 		"/>
		
			<rect x="711.834" y="50.529" transform="matrix(0.7071 -0.7071 0.7071 0.7071 162.3387 543.3532)" fill="#231F20" width="50.39" height="50.391"/>
		<polygon fill="#231F20" points="811.771,121.793 776.139,86.155 740.511,121.793 		"/>
	</g>
	<g>
		<polygon fill="#EC1C24" points="0,43.508 20.128,63.635 40.264,83.764 60.418,103.925 80.552,124.053 161.096,43.508 
			140.97,23.343 120.836,3.218 100.679,23.343 80.552,43.508 60.418,23.343 40.264,3.218 20.128,23.343 		"/>
	</g>
	<g>
		<polygon fill="#231F20" points="288.36,121.812 323.37,86.801 358.38,121.812 		"/>
		<polygon fill="#231F20" points="253.344,70.004 288.373,105.034 323.373,70.004 358.38,105.034 393.376,70.004 358.38,35.004 
			323.373,0 288.373,35.004 		"/>
	</g>
</g>
</svg>
