<?xml version="1.0" encoding="utf-8"?>
<!-- Generator: Adobe Illustrator 16.0.4, SVG Export Plug-In . SVG Version: 6.00 Build 0)  -->
<!DOCTYPE svg PUBLIC "-//W3C//DTD SVG 1.1//EN" "http://www.w3.org/Graphics/SVG/1.1/DTD/svg11.dtd">
<svg version="1.1" id="Layer_1" xmlns="http://www.w3.org/2000/svg" xmlns:xlink="http://www.w3.org/1999/xlink" x="0px" y="0px"
	 width="219.227px" height="278.316px" viewBox="-19.613 -13.158 219.227 278.316"
	 enable-background="new -19.613 -13.158 219.227 278.316" xml:space="preserve">
<g>
	<g>
		<defs>
			<path id="SVGID_1_" d="M160.036,252.452c-1.178,7.018-7.993,11.722-15.223,10.509L-6.522,237.563
				c-7.23-1.214-12.136-7.886-10.958-14.904L19.964-0.453c1.177-7.017,7.993-11.722,15.223-10.508l151.337,25.398
				c7.229,1.213,12.135,7.886,10.958,14.902L160.036,252.452z"/>
		</defs>
		<clipPath id="SVGID_2_">
			<use xlink:href="#SVGID_1_"  overflow="visible"/>
		</clipPath>
		<g clip-path="url(#SVGID_2_)">
			
				<rect x="0" y="0" transform="matrix(-0.9862 -0.1655 0.1655 -0.9862 157.9048 265.1583)" fill="#FFFFFF" width="180" height="252"/>
			<g>
				<g>
					<polygon opacity="0.5" fill="#7F7F7F" enable-background="new    " points="157.904,265.158 167.035,210.753 93.104,-1.242 
						22.096,-13.158 15.999,23.167 88.746,253.552 					"/>
					<polygon opacity="0.7" fill="#E0E0DF" enable-background="new    " points="171.974,181.324 -0.015,118.59 22.096,-13.158 
						52.421,-8.069 185.706,99.499 					"/>
					<polygon opacity="0.4" fill="#ABABAB" enable-background="new    " points="120.182,258.827 -2.207,131.648 9.584,61.393 
						179.85,134.396 157.904,265.158 					"/>
					<polygon opacity="0.5" fill="#7F7F7F" enable-background="new    " points="-19.613,235.366 -10.368,180.279 129.165,4.811 
						199.613,16.634 193.71,51.808 50.038,247.056 					"/>
					<polygon opacity="0.4" fill="#E0E0DF" enable-background="new    " points="-5.378,150.547 177.668,147.396 199.613,16.634 
						170.767,11.792 8.354,68.721 					"/>
					<polygon opacity="0.4" fill="#ABABAB" enable-background="new    " points="18.196,241.711 175.394,160.947 187.185,90.692 
						2.415,104.111 -19.613,235.366 					"/>
				</g>
				<g>
					<path fill="#ED1F24" d="M104.795,119.79c0,0,16.626-0.855,20.842-27.022c0,0-5.322,29.719,16.807,33.341
						c22.121,3.615-2.934,12.931-2.934,12.931l-41.898-2.129L104.795,119.79z"/>
					<path fill="#ED2024" d="M39.701,108.866c0,0,16.627-0.856,20.843-27.023c0,0-5.322,29.719,16.798,33.34
						c22.123,3.616-2.927,12.931-2.927,12.931l-41.89-2.126L39.701,108.866z"/>
					<path d="M22.263,148.937c0,0,55.19,39.692,124.274,20.857l6.454-38.459l5.133-30.579c0,0-9.238,35.291-35.825,30.662
						C95.72,126.789,97.803,79.48,97.803,79.48s-12.163,45.953-39.562,41.187c-27.417-4.769-24.492-37.235-24.492-37.235
						L22.263,148.937z"/>
				</g>
				<g>
					<g>
						<text transform="matrix(0.9862 0.1655 -0.1655 0.9862 122.8682 245.5889)" font-family="'DroidSerif'" font-size="28.7801">K</text>
						<g>
							<polygon points="145.258,216.514 139.521,208.265 131.405,214.188 							"/>
							<polygon points="153.943,207.193 145.825,213.119 140.092,204.869 131.974,210.795 126.24,202.544 134.352,196.628 
								142.468,190.708 148.203,198.952 							"/>
						</g>
					</g>
					<g>
						<text transform="matrix(0.9862 0.1655 -0.1655 0.9862 31.9902 25.5757)" font-family="'DroidSerif'" font-size="32.3097">K</text>
						<g>
							<polygon points="43.881,66.642 38.145,58.393 30.028,64.317 							"/>
							<polygon points="52.567,57.322 44.449,63.247 38.714,54.997 30.598,60.922 24.863,52.672 32.975,46.756 41.091,40.835 
								46.826,49.081 							"/>
						</g>
					</g>
				</g>
				<g>
					<polygon fill="#ED1F24" points="91.174,151.807 86.738,145.43 80.462,150.009 					"/>
					<polygon fill="#ED1F24" points="97.89,144.601 91.613,149.183 87.179,142.803 80.903,147.385 76.47,141.006 82.741,136.431 
						89.017,131.854 93.451,138.228 					"/>
				</g>
			</g>
		</g>
	</g>
</g>
</svg>
