<?xml version="1.0" encoding="utf-8"?>
<!-- Generator: Adobe Illustrator 16.0.0, SVG Export Plug-In . SVG Version: 6.00 Build 0)  -->
<!DOCTYPE svg PUBLIC "-//W3C//DTD SVG 1.1//EN" "http://www.w3.org/Graphics/SVG/1.1/DTD/svg11.dtd">
<svg version="1.1" id="Layer_1" xmlns="http://www.w3.org/2000/svg" xmlns:xlink="http://www.w3.org/1999/xlink" x="0px" y="0px"
	 width="600.445px" height="72.33px" viewBox="0 0 600.445 72.33" enable-background="new 0 0 600.445 72.33" xml:space="preserve">
<g>
	<g>
		<path fill="#ED1E24" d="M4,71.051V5.279h13.301v24.957L27.605,5.279h14.872l-13.411,26.93l14.397,38.842H29.651l-9.938-30.071
			l-2.412,6.211v23.86H4z"/>
		<path fill="#ED1E24" d="M45.984,71.051V5.279h27.442v9.135H59.285v17.905h10.012v9.354H59.285v20.243h14.142v9.135H45.984z"/>
		<path fill="#ED1E24" d="M78.177,71.051V5.243h9.573l14.434,34.42V5.243h11.035v65.808h-9.208L89.613,34.548v36.503H78.177z"/>
		<path fill="#ED1E24" d="M127.287,71.051V15.218h-9.646V5.279h32.411v9.938h-9.465v55.833H127.287z"/>
		<path fill="#ED1E24" d="M169.454,71.051V5.279h13.301v26.966h9.537V5.279h13.373v65.771h-13.373V41.71h-9.537v29.341H169.454z"/>
		<path fill="#ED1E24" d="M209.904,71.051l14.214-65.771h11.766l14.178,65.771h-13.118l-2.704-14.067h-8.587l-2.558,14.067H209.904z
			 M226.566,48.798h6.796l-3.325-24.408L226.566,48.798z"/>
		<path fill="#ED1E24" d="M253.021,49.091V27.313C253.021,11.771,259.379,4,272.095,4c2.68,0,5.062,0.36,7.145,1.078
			c2.082,0.719,3.83,1.712,5.243,2.978c1.412,1.267,2.576,2.826,3.489,4.677c0.914,1.852,1.571,3.861,1.974,6.029
			c0.401,2.168,0.603,4.556,0.603,7.162v5.664h-13.081v-6.065c0-1.193-0.024-2.223-0.073-3.088
			c-0.049-0.864-0.177-1.851-0.384-2.959s-0.487-2.01-0.841-2.704c-0.353-0.694-0.877-1.285-1.57-1.772
			c-0.694-0.487-1.529-0.73-2.504-0.73c-3.849,0-5.772,3.24-5.772,9.72V52.38c0,6.455,1.924,9.683,5.772,9.683
			c1.146,0,2.107-0.329,2.887-0.987c0.779-0.657,1.34-1.589,1.682-2.795c0.341-1.205,0.571-2.387,0.694-3.544
			c0.121-1.157,0.183-2.479,0.183-3.965v-6.76h13.008v5.554c-0.049,2.51-0.256,4.824-0.621,6.943s-0.986,4.178-1.863,6.175
			s-1.991,3.685-3.344,5.062c-1.352,1.376-3.101,2.483-5.243,3.324c-2.145,0.841-4.604,1.261-7.382,1.261
			c-2.85,0-5.377-0.408-7.582-1.225c-2.204-0.815-4.019-1.912-5.444-3.288c-1.425-1.376-2.601-3.069-3.525-5.079
			c-0.927-2.01-1.578-4.122-1.955-6.339C253.21,54.183,253.021,51.746,253.021,49.091z"/>
		<path fill="#ED1E24" d="M296.76,71.051V5.279h13.3v24.957l10.305-24.957h14.871l-13.41,26.93l14.396,38.842h-13.811l-9.939-30.071
			l-2.412,6.211v23.86H296.76z"/>
		<path fill="#ED1E24" d="M353.726,71.051V5.279h27.441v9.135h-14.141v17.905h10.012v9.354h-10.012v20.243h14.141v9.135H353.726z"/>
		<path fill="#ED1E24" d="M385.917,71.051V5.243h9.574l14.434,34.42V5.243h11.035v65.808h-9.209l-14.396-36.503v36.503H385.917z"/>
		<path fill="#ED1E24" d="M427.939,49.419V27.313C427.939,11.771,434.345,4,447.158,4c12.838,0,19.258,7.771,19.258,23.313v21.778
			c0,2.631-0.195,5.061-0.584,7.289c-0.391,2.229-1.055,4.344-1.992,6.34c-0.938,1.998-2.133,3.697-3.582,5.098
			c-1.449,1.401-3.281,2.503-5.498,3.308c-2.217,0.803-4.75,1.205-7.602,1.205c-2.826,0-5.346-0.396-7.562-1.188
			s-4.045-1.863-5.48-3.216c-1.439-1.352-2.627-3.008-3.564-4.969s-1.607-4.05-2.01-6.268
			C428.14,54.475,427.939,52.05,427.939,49.419z M453.115,52.416V23.988c0-6.48-1.986-9.72-5.957-9.72
			c-1.193,0-2.203,0.298-3.031,0.895c-0.83,0.597-1.438,1.413-1.828,2.448c-0.389,1.036-0.664,2.059-0.822,3.069
			c-0.158,1.011-0.236,2.114-0.236,3.307v28.428c0,6.456,1.973,9.683,5.918,9.683C451.128,62.099,453.115,58.872,453.115,52.416z"/>
		<path fill="#ED1E24" d="M473.101,46.606V5.279h13.301v40.925c0,2.338,0.012,4.037,0.037,5.098
			c0.023,1.059,0.086,2.351,0.184,3.873c0.096,1.522,0.268,2.588,0.51,3.197c0.244,0.609,0.58,1.267,1.006,1.973
			c0.426,0.707,0.98,1.17,1.662,1.389s1.51,0.329,2.484,0.329s1.803-0.11,2.486-0.329c0.682-0.219,1.234-0.676,1.662-1.37
			c0.426-0.694,0.76-1.346,1.004-1.955c0.244-0.608,0.414-1.663,0.512-3.161s0.158-2.764,0.184-3.799
			c0.023-1.035,0.035-2.711,0.035-5.025c0-0.097,0-0.17,0-0.219V5.279h13.301v41.327c0,2.095-0.061,3.995-0.182,5.699
			c-0.123,1.706-0.354,3.472-0.695,5.299c-0.34,1.827-0.803,3.441-1.389,4.842c-0.584,1.4-1.363,2.74-2.338,4.02
			s-2.125,2.332-3.453,3.16c-1.328,0.829-2.93,1.485-4.805,1.974c-1.877,0.486-3.982,0.73-6.322,0.73
			c-2.338,0-4.445-0.244-6.32-0.73c-1.877-0.488-3.473-1.145-4.787-1.974c-1.316-0.828-2.461-1.881-3.436-3.16
			s-1.754-2.619-2.338-4.02s-1.055-3.015-1.406-4.842c-0.354-1.827-0.592-3.593-0.713-5.299
			C473.162,50.602,473.101,48.701,473.101,46.606z"/>
		<path fill="#ED1E24" d="M518.156,50.479V27.313C518.156,11.771,524.625,4,537.558,4c2.729,0,5.158,0.36,7.291,1.078
			c2.131,0.719,3.916,1.712,5.354,2.978c1.436,1.267,2.617,2.826,3.543,4.677c0.926,1.852,1.596,3.861,2.01,6.029
			c0.414,2.168,0.621,4.556,0.621,7.162v3.873h-12.715v-4.604c0-1.145-0.031-2.149-0.092-3.015
			c-0.061-0.864-0.213-1.827-0.457-2.887c-0.244-1.06-0.572-1.93-0.986-2.612c-0.414-0.682-1.012-1.254-1.791-1.717
			c-0.779-0.462-1.705-0.694-2.777-0.694c-4.068,0-6.102,3.24-6.102,9.72V52.38c0,6.455,2.033,9.683,6.102,9.683
			c4.045,0,6.066-3.349,6.066-10.049v-5.262h-7.527v-9.536h20.828v33.835h-9.135l-1.682-4.604c-1.121,1.754-2.717,3.174-4.787,4.257
			s-4.201,1.626-6.395,1.626c-2.361,0-4.512-0.433-6.449-1.297c-1.936-0.865-3.531-2.01-4.785-3.435
			c-1.256-1.426-2.309-3.1-3.162-5.025c-0.852-1.924-1.461-3.891-1.826-5.9S518.156,52.599,518.156,50.479z"/>
		<path fill="#ED1E24" d="M564.234,71.051V5.279h13.299v26.966h9.537V5.279h13.375v65.771H587.07V41.71h-9.537v29.341H564.234z"/>
	</g>
	<g>
		<path fill="#FFFFFF" d="M2,69.051V3.279h13.301v24.957L25.605,3.279h14.872l-13.411,26.93l14.397,38.842H27.651l-9.938-30.071
			l-2.412,6.211v23.86H2z"/>
		<path fill="#FFFFFF" d="M43.984,69.051V3.279h27.442v9.135H57.285v17.905h10.012v9.354H57.285v20.243h14.142v9.135H43.984z"/>
		<path fill="#FFFFFF" d="M76.177,69.051V3.243h9.573l14.434,34.42V3.243h11.035v65.808h-9.208L87.613,32.548v36.503H76.177z"/>
		<path fill="#FFFFFF" d="M125.287,69.051V13.218h-9.646V3.279h32.411v9.938h-9.465v55.833H125.287z"/>
		<path fill="#FFFFFF" d="M167.454,69.051V3.279h13.301v26.966h9.537V3.279h13.373v65.771h-13.373V39.71h-9.537v29.341H167.454z"/>
		<path fill="#FFFFFF" d="M207.904,69.051l14.214-65.771h11.766l14.178,65.771h-13.118l-2.704-14.067h-8.587l-2.558,14.067H207.904z
			 M224.566,46.798h6.796l-3.325-24.408L224.566,46.798z"/>
		<path fill="#FFFFFF" d="M251.021,47.091V25.313C251.021,9.771,257.379,2,270.095,2c2.68,0,5.062,0.36,7.145,1.078
			c2.082,0.719,3.83,1.712,5.243,2.978c1.412,1.267,2.576,2.826,3.489,4.677c0.914,1.852,1.571,3.861,1.974,6.029
			c0.401,2.168,0.603,4.556,0.603,7.162v5.664h-13.081v-6.065c0-1.193-0.024-2.223-0.073-3.088
			c-0.049-0.864-0.177-1.851-0.384-2.959s-0.487-2.01-0.841-2.704c-0.353-0.694-0.877-1.285-1.57-1.772
			c-0.694-0.487-1.529-0.73-2.504-0.73c-3.849,0-5.772,3.24-5.772,9.72V50.38c0,6.455,1.924,9.683,5.772,9.683
			c1.146,0,2.107-0.329,2.887-0.987c0.779-0.657,1.34-1.589,1.682-2.795c0.341-1.205,0.571-2.387,0.694-3.544
			c0.121-1.157,0.183-2.479,0.183-3.965v-6.76h13.008v5.554c-0.049,2.51-0.256,4.824-0.621,6.943s-0.986,4.178-1.863,6.175
			s-1.991,3.685-3.344,5.062c-1.352,1.376-3.101,2.484-5.243,3.324c-2.145,0.841-4.604,1.261-7.382,1.261
			c-2.85,0-5.377-0.408-7.582-1.225c-2.204-0.815-4.019-1.911-5.444-3.288c-1.425-1.376-2.601-3.069-3.525-5.079
			c-0.927-2.01-1.578-4.122-1.955-6.339C251.21,52.183,251.021,49.746,251.021,47.091z"/>
		<path fill="#FFFFFF" d="M294.76,69.051V3.279h13.3v24.957l10.305-24.957h14.871l-13.41,26.93l14.396,38.842h-13.811l-9.939-30.071
			l-2.412,6.211v23.86H294.76z"/>
		<path fill="#FFFFFF" d="M351.726,69.051V3.279h27.441v9.135h-14.141v17.905h10.012v9.354h-10.012v20.243h14.141v9.135H351.726z"/>
		<path fill="#FFFFFF" d="M383.917,69.051V3.243h9.574l14.434,34.42V3.243h11.035v65.808h-9.209l-14.396-36.503v36.503H383.917z"/>
		<path fill="#FFFFFF" d="M425.939,47.419V25.313C425.939,9.771,432.345,2,445.158,2c12.838,0,19.258,7.771,19.258,23.313v21.778
			c0,2.631-0.195,5.061-0.584,7.289c-0.391,2.229-1.055,4.344-1.992,6.34c-0.938,1.998-2.133,3.697-3.582,5.098
			c-1.449,1.401-3.281,2.503-5.498,3.308c-2.217,0.803-4.75,1.205-7.602,1.205c-2.826,0-5.346-0.396-7.562-1.188
			c-2.217-0.792-4.045-1.863-5.48-3.216c-1.439-1.352-2.627-3.008-3.564-4.969s-1.607-4.05-2.01-6.268
			C426.14,52.475,425.939,50.05,425.939,47.419z M451.115,50.416V21.988c0-6.48-1.986-9.72-5.957-9.72
			c-1.193,0-2.203,0.298-3.031,0.895c-0.83,0.597-1.438,1.413-1.828,2.448c-0.389,1.036-0.664,2.059-0.822,3.069
			c-0.158,1.011-0.236,2.114-0.236,3.307v28.428c0,6.456,1.973,9.683,5.918,9.683C449.128,60.099,451.115,56.872,451.115,50.416z"/>
		<path fill="#FFFFFF" d="M471.101,44.606V3.279h13.301v40.925c0,2.338,0.012,4.037,0.037,5.098
			c0.023,1.059,0.086,2.351,0.184,3.873c0.096,1.522,0.268,2.588,0.51,3.197c0.244,0.609,0.58,1.267,1.006,1.973
			c0.426,0.707,0.98,1.17,1.662,1.389s1.51,0.329,2.484,0.329s1.803-0.11,2.486-0.329c0.682-0.219,1.234-0.676,1.662-1.37
			c0.426-0.694,0.76-1.346,1.004-1.955c0.244-0.608,0.414-1.663,0.512-3.161s0.158-2.764,0.184-3.799
			c0.023-1.035,0.035-2.711,0.035-5.025c0-0.097,0-0.17,0-0.219V3.279h13.301v41.327c0,2.095-0.061,3.995-0.182,5.699
			c-0.123,1.706-0.354,3.472-0.695,5.299c-0.34,1.827-0.803,3.441-1.389,4.842c-0.584,1.4-1.363,2.74-2.338,4.02
			s-2.125,2.332-3.453,3.16s-2.93,1.485-4.805,1.974c-1.877,0.486-3.982,0.73-6.322,0.73c-2.338,0-4.445-0.244-6.32-0.73
			c-1.877-0.488-3.473-1.146-4.787-1.974c-1.316-0.828-2.461-1.881-3.436-3.16s-1.754-2.619-2.338-4.02s-1.055-3.015-1.406-4.842
			c-0.354-1.827-0.592-3.593-0.713-5.299C471.162,48.602,471.101,46.701,471.101,44.606z"/>
		<path fill="#FFFFFF" d="M516.156,48.479V25.313C516.156,9.771,522.625,2,535.558,2c2.729,0,5.158,0.36,7.291,1.078
			c2.131,0.719,3.916,1.712,5.354,2.978c1.436,1.267,2.617,2.826,3.543,4.677c0.926,1.852,1.596,3.861,2.01,6.029
			c0.414,2.168,0.621,4.556,0.621,7.162v3.873h-12.715v-4.604c0-1.145-0.031-2.149-0.092-3.015
			c-0.061-0.864-0.213-1.827-0.457-2.887c-0.244-1.06-0.572-1.93-0.986-2.612c-0.414-0.682-1.012-1.254-1.791-1.717
			c-0.779-0.462-1.705-0.694-2.777-0.694c-4.068,0-6.102,3.24-6.102,9.72V50.38c0,6.455,2.033,9.683,6.102,9.683
			c4.045,0,6.066-3.349,6.066-10.049v-5.262h-7.527v-9.537h20.828v33.835h-9.135l-1.682-4.604c-1.121,1.754-2.717,3.173-4.787,4.257
			c-2.07,1.083-4.201,1.626-6.395,1.626c-2.361,0-4.512-0.433-6.449-1.297c-1.936-0.864-3.531-2.01-4.785-3.435
			c-1.256-1.426-2.309-3.1-3.162-5.025c-0.852-1.924-1.461-3.891-1.826-5.9S516.156,50.599,516.156,48.479z"/>
		<path fill="#FFFFFF" d="M562.234,69.051V3.279h13.299v26.966h9.537V3.279h13.375v65.771H585.07V39.71h-9.537v29.341H562.234z"/>
	</g>
	<g>
		<path d="M0,67.052V1.279h13.301v24.957L23.605,1.279h14.872l-13.411,26.93l14.397,38.843H25.651l-9.938-30.073l-2.412,6.211
			v23.861H0z"/>
		<path d="M41.984,67.052V1.279h27.442v9.135H55.285v17.905h10.012v9.354H55.285v20.243h14.142v9.136H41.984z"/>
		<path d="M74.177,67.052V1.243h9.573l14.434,34.421V1.243h11.035v65.809h-9.208L85.613,30.548v36.504H74.177z"/>
		<path d="M123.287,67.052V11.218h-9.646V1.279h32.411v9.938h-9.465v55.834H123.287z"/>
		<path d="M165.454,67.052V1.279h13.301v26.966h9.537V1.279h13.373v65.772h-13.373V37.71h-9.537v29.342H165.454z"/>
		<path d="M205.904,67.052l14.214-65.772h11.766l14.178,65.772h-13.118l-2.704-14.068h-8.587l-2.558,14.068H205.904z
			 M222.566,44.798h6.796l-3.325-24.408L222.566,44.798z"/>
		<path d="M249.021,45.091V23.313C249.021,7.771,255.379,0,268.095,0c2.68,0,5.062,0.36,7.145,1.078
			c2.082,0.719,3.83,1.712,5.243,2.978c1.412,1.267,2.576,2.826,3.489,4.677c0.914,1.852,1.571,3.861,1.974,6.029
			c0.401,2.168,0.603,4.556,0.603,7.162v5.664h-13.081v-6.065c0-1.193-0.024-2.223-0.073-3.088
			c-0.049-0.864-0.177-1.851-0.384-2.959s-0.487-2.01-0.841-2.704c-0.353-0.694-0.877-1.285-1.57-1.772
			c-0.694-0.487-1.529-0.73-2.504-0.73c-3.849,0-5.772,3.24-5.772,9.72V48.38c0,6.455,1.924,9.683,5.772,9.683
			c1.146,0,2.107-0.329,2.887-0.987c0.779-0.657,1.34-1.589,1.682-2.795c0.341-1.205,0.571-2.387,0.694-3.544
			c0.121-1.157,0.183-2.479,0.183-3.965v-6.76h13.008v5.554c-0.049,2.51-0.256,4.824-0.621,6.943s-0.986,4.178-1.863,6.175
			s-1.991,3.685-3.344,5.062c-1.352,1.376-3.101,2.484-5.243,3.324c-2.145,0.841-4.604,1.261-7.382,1.261
			c-2.85,0-5.377-0.408-7.582-1.224c-2.204-0.816-4.019-1.912-5.444-3.289c-1.425-1.376-2.601-3.069-3.525-5.079
			c-0.927-2.01-1.578-4.122-1.955-6.339C249.21,50.183,249.021,47.746,249.021,45.091z"/>
		<path d="M292.76,67.052V1.279h13.3v24.957l10.305-24.957h14.871l-13.41,26.93l14.396,38.843h-13.811l-9.939-30.073l-2.412,6.211
			v23.861H292.76z"/>
		<path d="M349.726,67.052V1.279h27.441v9.135h-14.143v17.905h10.014v9.354h-10.014v20.243h14.143v9.136H349.726z"/>
		<path d="M381.917,67.052V1.243h9.574l14.434,34.421V1.243h11.035v65.809h-9.209l-14.396-36.504v36.504H381.917z"/>
		<path d="M423.939,45.419V23.313C423.939,7.771,430.345,0,443.158,0c12.838,0,19.258,7.771,19.258,23.313v21.778
			c0,2.631-0.195,5.061-0.584,7.289c-0.391,2.229-1.055,4.344-1.992,6.34c-0.938,1.998-2.133,3.697-3.582,5.098
			c-1.449,1.401-3.281,2.503-5.498,3.307c-2.217,0.805-4.75,1.206-7.602,1.206c-2.826,0-5.346-0.396-7.562-1.188
			s-4.045-1.863-5.48-3.216c-1.439-1.352-2.627-3.008-3.564-4.969s-1.607-4.05-2.01-6.268
			C424.14,50.475,423.939,48.05,423.939,45.419z M449.115,48.416V19.988c0-6.48-1.986-9.72-5.957-9.72
			c-1.193,0-2.203,0.298-3.031,0.895c-0.83,0.597-1.438,1.413-1.828,2.448c-0.389,1.036-0.664,2.059-0.822,3.069
			c-0.158,1.011-0.236,2.114-0.236,3.307v28.428c0,6.456,1.973,9.683,5.918,9.683C447.128,58.099,449.115,54.872,449.115,48.416z"/>
		<path d="M469.101,42.606V1.279h13.301v40.925c0,2.338,0.012,4.037,0.037,5.098c0.023,1.059,0.086,2.351,0.184,3.873
			c0.096,1.522,0.268,2.588,0.51,3.197c0.244,0.609,0.58,1.267,1.006,1.973c0.426,0.707,0.98,1.17,1.662,1.389
			s1.51,0.329,2.484,0.329s1.803-0.11,2.486-0.329c0.682-0.219,1.234-0.676,1.662-1.37c0.426-0.694,0.76-1.346,1.004-1.955
			c0.244-0.608,0.414-1.663,0.512-3.161s0.158-2.764,0.184-3.799c0.023-1.035,0.035-2.711,0.035-5.025c0-0.097,0-0.17,0-0.219V1.279
			h13.301v41.327c0,2.095-0.061,3.995-0.182,5.699c-0.123,1.706-0.354,3.472-0.695,5.299c-0.34,1.827-0.803,3.441-1.389,4.842
			c-0.584,1.4-1.363,2.74-2.338,4.02s-2.125,2.332-3.453,3.16s-2.93,1.486-4.805,1.974c-1.877,0.487-3.982,0.73-6.322,0.73
			c-2.338,0-4.445-0.243-6.32-0.73c-1.877-0.487-3.473-1.146-4.787-1.974c-1.316-0.828-2.461-1.881-3.436-3.16
			s-1.754-2.619-2.338-4.02s-1.055-3.015-1.406-4.842c-0.354-1.827-0.592-3.593-0.713-5.299
			C469.162,46.602,469.101,44.701,469.101,42.606z"/>
		<path d="M514.156,46.479V23.313C514.156,7.771,520.625,0,533.558,0c2.729,0,5.158,0.36,7.291,1.078
			c2.131,0.719,3.916,1.712,5.354,2.978c1.436,1.267,2.617,2.826,3.543,4.677c0.926,1.852,1.596,3.861,2.01,6.029
			c0.414,2.168,0.621,4.556,0.621,7.162v3.873h-12.715v-4.604c0-1.145-0.031-2.149-0.092-3.015
			c-0.061-0.864-0.213-1.827-0.457-2.887c-0.244-1.06-0.572-1.93-0.986-2.612c-0.414-0.682-1.012-1.254-1.791-1.717
			c-0.779-0.462-1.705-0.694-2.777-0.694c-4.068,0-6.102,3.24-6.102,9.72V48.38c0,6.455,2.033,9.683,6.102,9.683
			c4.045,0,6.066-3.349,6.066-10.049v-5.262h-7.527v-9.537h20.828v33.836h-9.135l-1.682-4.604c-1.121,1.754-2.717,3.173-4.787,4.257
			s-4.201,1.626-6.395,1.626c-2.361,0-4.512-0.433-6.449-1.297c-1.936-0.864-3.531-2.01-4.785-3.435
			c-1.256-1.426-2.309-3.1-3.162-5.025c-0.852-1.924-1.461-3.891-1.826-5.9S514.156,48.599,514.156,46.479z"/>
		<path d="M560.234,67.052V1.279h13.299v26.966h9.537V1.279h13.375v65.772H583.07V37.71h-9.537v29.342H560.234z"/>
	</g>
</g>
</svg>
