<?xml version="1.0" encoding="utf-8"?>
<!-- Generator: Adobe Illustrator 16.0.4, SVG Export Plug-In . SVG Version: 6.00 Build 0)  -->
<!DOCTYPE svg PUBLIC "-//W3C//DTD SVG 1.1//EN" "http://www.w3.org/Graphics/SVG/1.1/DTD/svg11.dtd">
<svg version="1.1" id="Layer_1" xmlns="http://www.w3.org/2000/svg" xmlns:xlink="http://www.w3.org/1999/xlink" x="0px" y="0px"
	 width="144px" height="144px" viewBox="0 0 144 144" enable-background="new 0 0 144 144" xml:space="preserve">
<g>
	<path fill="#CCCED0" d="M71.999,144C111.764,144,144,111.763,144,72c0-39.763-32.236-72-72.002-72C32.235,0,0,32.236,0,72
		C0,111.763,32.235,144,71.999,144L71.999,144z"/>
	<path fill="#FFFFFF" d="M64.034,131.107c34.814,0,63.035-28.164,63.035-62.908c0-34.744-28.221-62.91-63.035-62.91
		c-34.812,0-63.035,28.166-63.035,62.91C0.999,102.943,29.221,131.107,64.034,131.107L64.034,131.107z"/>
</g>
</svg>
