<?xml version="1.0" encoding="utf-8"?>
<!-- Generator: Adobe Illustrator 16.0.4, SVG Export Plug-In . SVG Version: 6.00 Build 0)  -->
<!DOCTYPE svg PUBLIC "-//W3C//DTD SVG 1.1//EN" "http://www.w3.org/Graphics/SVG/1.1/DTD/svg11.dtd">
<svg version="1.1" id="Layer_1" xmlns="http://www.w3.org/2000/svg" xmlns:xlink="http://www.w3.org/1999/xlink" x="0px" y="0px"
	 width="296.932px" height="415.75px" viewBox="0 0 296.932 415.75" enable-background="new 0 0 296.932 415.75"
	 xml:space="preserve">
<g>
	<polygon fill="#AC2B31" points="4.989,35.25 52.578,383 242.621,383 290.774,35.25 4.989,35.25 	"/>
	<path fill="#AC2B31" d="M147.386,415.75c52.291,0,94.68-13.879,94.68-31s-42.39-31-94.68-31c-52.29,0-94.68,13.879-94.68,31
		S95.096,415.75,147.386,415.75L147.386,415.75z"/>
	<path fill="#891F22" d="M208.934,65.961l-25.908,347.47c0,0,29.565-2.016,52.128-16.848c5.881-3.865,7.16-11.873,7.16-11.873
		l48.153-347.75L208.934,65.961L208.934,65.961z"/>
	<path fill="#B24039" d="M77.933,66.729l26.88,345.919c0,0-3.485-1.529-15.387-4.393c-11.376-2.736-20.835-7.271-20.835-7.271
		L18.466,41L77.933,66.729L77.933,66.729z"/>
	<path fill="#CCCED0" stroke="#FFFFFF" stroke-width="11" d="M148.466,66.5c78.958,0,142.966-13.654,142.966-30.5
		c0-16.844-64.008-30.5-142.966-30.5C69.508,5.5,5.5,19.156,5.5,36C5.5,52.846,69.508,66.5,148.466,66.5L148.466,66.5z"/>
	<path fill="none" stroke="#761719" stroke-width="3" d="M147.233,120.5c74.135,0,134.234-13.143,134.234-29.355"/>
	<path fill="none" stroke="#761719" stroke-width="3" d="M146.754,155.486c71.638,0,129.713-12.689,129.713-28.342 M146.75,319.121
		c59.057,0,106.932-11.963,106.932-26.721"/>
	<path fill="none" stroke="#761719" stroke-width="2" d="M146.466,401.201c52.655,0,95.34-11.295,95.34-25.227"/>
	<path fill="none" stroke="#000000" stroke-width="2" d="M147.466,350.75"/>
</g>
</svg>
